<svg width="200" height="200" viewBox="0 0 200 200" fill="none" xmlns="http://www.w3.org/2000/svg">
  <path d="M100 20C60 20 20 60 20 100C20 140 60 180 100 180C140 180 180 140 180 100C180 60 140 20 100 20Z" fill="#a8c8a1" fill-opacity="0.4"/>
  <path d="M100 30C65 30 30 65 30 100C30 135 65 170 100 170C135 170 170 135 170 100C170 65 135 30 100 30Z" fill="#7fb685" fill-opacity="0.3"/>
  <path d="M50 70C50 70 70 40 100 40C130 40 150 70 150 70C150 70 130 60 100 60C70 60 50 70 50 70Z" fill="#5d9178" fill-opacity="0.3"/>
  <path d="M40 100C40 100 70 80 100 80C130 80 160 100 160 100C160 100 130 90 100 90C70 90 40 100 40 100Z" fill="#5d9178" fill-opacity="0.3"/>
  <path d="M50 130C50 130 70 160 100 160C130 160 150 130 150 130C150 130 130 140 100 140C70 140 50 130 50 130Z" fill="#5d9178" fill-opacity="0.3"/>
  <path d="M100 50C100 50 80 80 80 100C80 120 100 150 100 150C100 150 90 120 90 100C90 80 100 50 100 50Z" fill="#5d9178" fill-opacity="0.3"/>
  <path d="M100 50C100 50 120 80 120 100C120 120 100 150 100 150C100 150 110 120 110 100C110 80 100 50 100 50Z" fill="#5d9178" fill-opacity="0.3"/>
</svg> 